<?xml version="1.0" encoding="utf-8"?>
<svg version="1.1" xmlns:xlink="http://www.w3.org/1999/xlink" width="300px" height="170px" xmlns="http://www.w3.org/2000/svg">
  <g transform="matrix(1 0 0 1 -606 -559 )">
    <path d="M 606 559  L 906 559  L 906 729  L 606 729  L 606 559  " fill-rule="nonzero" fill="rgba(204, 204, 204, 1)" stroke="none" class="fill" />
    <path d="M 618 571  L 894 571  L 894 717  L 618 717  L 618 571  " fill-rule="nonzero" fill="rgba(255, 255, 255, 1)" stroke="none" class="fill" />
    <path d="M 774.75 610  C 767.61 610  762 604.39  762 597.25  C 762 590.11  767.61 584.5  774.75 584.5  C 781.89 584.5  787.5 590.11  787.5 597.25  C 787.5 604.39  781.89 610  774.75 610  " fill-rule="nonzero" fill="rgba(204, 204, 204, 1)" stroke="none" class="fill" />
    <path d="M 623 713  L 623 637.65  L 689.75 603.4  L 783.2 666.42  L 836.6 623.95  L 890 666.42  L 890 713  L 623 713  " fill-rule="nonzero" fill="rgba(22, 155, 213, 1)" stroke="none" class="fill" />
  </g>
</svg>