<?xml version="1.0" encoding="utf-8"?>
<svg version="1.1" xmlns:xlink="http://www.w3.org/1999/xlink" width="33px" height="31px" xmlns="http://www.w3.org/2000/svg">
  <defs>
    <pattern id="BGPattern" patternUnits="userSpaceOnUse" alignment="0 0" imageRepeat="None" />
    <mask fill="white" id="Clip69">
      <path d="M 0 25.363636363636363  L 7.5625 25.363636363636363  L 7.5625 28.18181818181818  L 0 28.18181818181818  L 0 25.363636363636363  Z M 9.625 22.545454545454547  L 15.125 22.545454545454547  C 15.497395833333334 22.545454545454547  15.819661458333334 22.684895833333332  16.091796875 22.963778409090907  C 16.363932291666668 23.242660984848484  16.5 23.572916666666668  16.5 23.954545454545453  L 16.5 29.590909090909093  C 16.5 29.972537878787875  16.363932291666668 30.30279356060606  16.091796875 30.581676136363633  C 15.819661458333334 30.860558712121215  15.497395833333334 31  15.125 31  L 9.625 31  C 9.252604166666668 31  8.930338541666668 30.860558712121215  8.658203125 30.581676136363633  C 8.386067708333334 30.30279356060606  8.25 29.972537878787875  8.25 29.590909090909093  L 8.25 23.954545454545453  C 8.25 23.572916666666668  8.386067708333334 23.242660984848484  8.658203125 22.963778409090907  C 8.930338541666668 22.684895833333332  9.252604166666668 22.545454545454547  9.625 22.545454545454547  Z M 0 14  L 18.5625 14  L 18.5625 17  L 0 17  L 0 14  Z M 0 2.8181818181818192  L 4.8125 2.8181818181818192  L 4.8125 5.636363636363635  L 0 5.636363636363635  L 0 2.8181818181818192  Z M 17.1875 25  L 33 25  L 33 28  L 17.1875 28  L 17.1875 25  Z M 6.875 0  L 12.375 0  C 12.747395833333334 0  13.069661458333334 0.13944128787878496  13.341796875 0.4183238636363652  C 13.61393229166667 0.6972064393939351  13.75 1.0274621212121193  13.75 1.4090909090909078  L 13.75 7.045454545454546  C 13.75 7.427083333333331  13.61393229166667 7.757339015151512  13.341796875 8.036221590909092  C 13.069661458333334 8.315104166666663  12.747395833333334 8.454545454545453  12.375 8.454545454545453  L 6.875 8.454545454545453  C 6.502604166666667 8.454545454545453  6.180338541666667 8.315104166666663  5.908203125 8.036221590909092  C 5.636067708333334 7.757339015151512  5.5 7.427083333333331  5.5 7.045454545454546  L 5.5 1.4090909090909078  C 5.5 1.0274621212121193  5.636067708333334 0.6972064393939351  5.908203125 0.4183238636363652  C 6.180338541666667 0.13944128787878496  6.502604166666667 0  6.875 0  Z M 20.625 11.272727272727273  L 26.125 11.272727272727273  C 26.497395833333336 11.272727272727273  26.819661458333336 11.412168560606062  27.091796875 11.691051136363635  C 27.363932291666668 11.969933712121211  27.5 12.300189393939393  27.5 12.681818181818182  L 27.5 18.318181818181817  C 27.5 18.699810606060606  27.363932291666668 19.030066287878785  27.091796875 19.308948863636363  C 26.819661458333336 19.587831439393938  26.497395833333336 19.727272727272727  26.125 19.727272727272727  L 20.625 19.727272727272727  C 20.252604166666668 19.727272727272727  19.930338541666668 19.587831439393938  19.658203125 19.308948863636363  C 19.386067708333332 19.030066287878785  19.25 18.699810606060606  19.25 18.318181818181817  L 19.25 12.681818181818182  C 19.25 12.300189393939393  19.386067708333332 11.969933712121211  19.658203125 11.691051136363635  C 19.930338541666668 11.412168560606062  20.252604166666668 11.272727272727273  20.625 11.272727272727273  Z M 28.1875 14.090909090909092  L 33 14.090909090909092  L 33 16.909090909090907  L 28.1875 16.909090909090907  L 28.1875 14.090909090909092  Z M 14.4375 3  L 33 3  L 33 6  L 14.4375 6  L 14.4375 3  Z " fill-rule="evenodd" />
    </mask>
  </defs>
  <g transform="matrix(1 0 0 1 -367 -101 )">
    <path d="M 0 25.363636363636363  L 7.5625 25.363636363636363  L 7.5625 28.18181818181818  L 0 28.18181818181818  L 0 25.363636363636363  Z M 9.625 22.545454545454547  L 15.125 22.545454545454547  C 15.497395833333334 22.545454545454547  15.819661458333334 22.684895833333332  16.091796875 22.963778409090907  C 16.363932291666668 23.242660984848484  16.5 23.572916666666668  16.5 23.954545454545453  L 16.5 29.590909090909093  C 16.5 29.972537878787875  16.363932291666668 30.30279356060606  16.091796875 30.581676136363633  C 15.819661458333334 30.860558712121215  15.497395833333334 31  15.125 31  L 9.625 31  C 9.252604166666668 31  8.930338541666668 30.860558712121215  8.658203125 30.581676136363633  C 8.386067708333334 30.30279356060606  8.25 29.972537878787875  8.25 29.590909090909093  L 8.25 23.954545454545453  C 8.25 23.572916666666668  8.386067708333334 23.242660984848484  8.658203125 22.963778409090907  C 8.930338541666668 22.684895833333332  9.252604166666668 22.545454545454547  9.625 22.545454545454547  Z M 0 14  L 18.5625 14  L 18.5625 17  L 0 17  L 0 14  Z M 0 2.8181818181818192  L 4.8125 2.8181818181818192  L 4.8125 5.636363636363635  L 0 5.636363636363635  L 0 2.8181818181818192  Z M 17.1875 25  L 33 25  L 33 28  L 17.1875 28  L 17.1875 25  Z M 6.875 0  L 12.375 0  C 12.747395833333334 0  13.069661458333334 0.13944128787878496  13.341796875 0.4183238636363652  C 13.61393229166667 0.6972064393939351  13.75 1.0274621212121193  13.75 1.4090909090909078  L 13.75 7.045454545454546  C 13.75 7.427083333333331  13.61393229166667 7.757339015151512  13.341796875 8.036221590909092  C 13.069661458333334 8.315104166666663  12.747395833333334 8.454545454545453  12.375 8.454545454545453  L 6.875 8.454545454545453  C 6.502604166666667 8.454545454545453  6.180338541666667 8.315104166666663  5.908203125 8.036221590909092  C 5.636067708333334 7.757339015151512  5.5 7.427083333333331  5.5 7.045454545454546  L 5.5 1.4090909090909078  C 5.5 1.0274621212121193  5.636067708333334 0.6972064393939351  5.908203125 0.4183238636363652  C 6.180338541666667 0.13944128787878496  6.502604166666667 0  6.875 0  Z M 20.625 11.272727272727273  L 26.125 11.272727272727273  C 26.497395833333336 11.272727272727273  26.819661458333336 11.412168560606062  27.091796875 11.691051136363635  C 27.363932291666668 11.969933712121211  27.5 12.300189393939393  27.5 12.681818181818182  L 27.5 18.318181818181817  C 27.5 18.699810606060606  27.363932291666668 19.030066287878785  27.091796875 19.308948863636363  C 26.819661458333336 19.587831439393938  26.497395833333336 19.727272727272727  26.125 19.727272727272727  L 20.625 19.727272727272727  C 20.252604166666668 19.727272727272727  19.930338541666668 19.587831439393938  19.658203125 19.308948863636363  C 19.386067708333332 19.030066287878785  19.25 18.699810606060606  19.25 18.318181818181817  L 19.25 12.681818181818182  C 19.25 12.300189393939393  19.386067708333332 11.969933712121211  19.658203125 11.691051136363635  C 19.930338541666668 11.412168560606062  20.252604166666668 11.272727272727273  20.625 11.272727272727273  Z M 28.1875 14.090909090909092  L 33 14.090909090909092  L 33 16.909090909090907  L 28.1875 16.909090909090907  L 28.1875 14.090909090909092  Z M 14.4375 3  L 33 3  L 33 6  L 14.4375 6  L 14.4375 3  Z " fill-rule="nonzero" fill="rgba(255, 255, 255, 1)" stroke="none" transform="matrix(1 0 0 1 367 101 )" class="fill" />
    <path d="M 0 25.363636363636363  L 7.5625 25.363636363636363  L 7.5625 28.18181818181818  L 0 28.18181818181818  L 0 25.363636363636363  Z " stroke-width="0" stroke-dasharray="0" stroke="rgba(255, 255, 255, 0)" fill="none" transform="matrix(1 0 0 1 367 101 )" class="stroke" mask="url(#Clip69)" />
    <path d="M 9.625 22.545454545454547  L 15.125 22.545454545454547  C 15.497395833333334 22.545454545454547  15.819661458333334 22.684895833333332  16.091796875 22.963778409090907  C 16.363932291666668 23.242660984848484  16.5 23.572916666666668  16.5 23.954545454545453  L 16.5 29.590909090909093  C 16.5 29.972537878787875  16.363932291666668 30.30279356060606  16.091796875 30.581676136363633  C 15.819661458333334 30.860558712121215  15.497395833333334 31  15.125 31  L 9.625 31  C 9.252604166666668 31  8.930338541666668 30.860558712121215  8.658203125 30.581676136363633  C 8.386067708333334 30.30279356060606  8.25 29.972537878787875  8.25 29.590909090909093  L 8.25 23.954545454545453  C 8.25 23.572916666666668  8.386067708333334 23.242660984848484  8.658203125 22.963778409090907  C 8.930338541666668 22.684895833333332  9.252604166666668 22.545454545454547  9.625 22.545454545454547  Z " stroke-width="0" stroke-dasharray="0" stroke="rgba(255, 255, 255, 0)" fill="none" transform="matrix(1 0 0 1 367 101 )" class="stroke" mask="url(#Clip69)" />
    <path d="M 0 14  L 18.5625 14  L 18.5625 17  L 0 17  L 0 14  Z " stroke-width="0" stroke-dasharray="0" stroke="rgba(255, 255, 255, 0)" fill="none" transform="matrix(1 0 0 1 367 101 )" class="stroke" mask="url(#Clip69)" />
    <path d="M 0 2.8181818181818192  L 4.8125 2.8181818181818192  L 4.8125 5.636363636363635  L 0 5.636363636363635  L 0 2.8181818181818192  Z " stroke-width="0" stroke-dasharray="0" stroke="rgba(255, 255, 255, 0)" fill="none" transform="matrix(1 0 0 1 367 101 )" class="stroke" mask="url(#Clip69)" />
    <path d="M 17.1875 25  L 33 25  L 33 28  L 17.1875 28  L 17.1875 25  Z " stroke-width="0" stroke-dasharray="0" stroke="rgba(255, 255, 255, 0)" fill="none" transform="matrix(1 0 0 1 367 101 )" class="stroke" mask="url(#Clip69)" />
    <path d="M 6.875 0  L 12.375 0  C 12.747395833333334 0  13.069661458333334 0.13944128787878496  13.341796875 0.4183238636363652  C 13.61393229166667 0.6972064393939351  13.75 1.0274621212121193  13.75 1.4090909090909078  L 13.75 7.045454545454546  C 13.75 7.427083333333331  13.61393229166667 7.757339015151512  13.341796875 8.036221590909092  C 13.069661458333334 8.315104166666663  12.747395833333334 8.454545454545453  12.375 8.454545454545453  L 6.875 8.454545454545453  C 6.502604166666667 8.454545454545453  6.180338541666667 8.315104166666663  5.908203125 8.036221590909092  C 5.636067708333334 7.757339015151512  5.5 7.427083333333331  5.5 7.045454545454546  L 5.5 1.4090909090909078  C 5.5 1.0274621212121193  5.636067708333334 0.6972064393939351  5.908203125 0.4183238636363652  C 6.180338541666667 0.13944128787878496  6.502604166666667 0  6.875 0  Z " stroke-width="0" stroke-dasharray="0" stroke="rgba(255, 255, 255, 0)" fill="none" transform="matrix(1 0 0 1 367 101 )" class="stroke" mask="url(#Clip69)" />
    <path d="M 20.625 11.272727272727273  L 26.125 11.272727272727273  C 26.497395833333336 11.272727272727273  26.819661458333336 11.412168560606062  27.091796875 11.691051136363635  C 27.363932291666668 11.969933712121211  27.5 12.300189393939393  27.5 12.681818181818182  L 27.5 18.318181818181817  C 27.5 18.699810606060606  27.363932291666668 19.030066287878785  27.091796875 19.308948863636363  C 26.819661458333336 19.587831439393938  26.497395833333336 19.727272727272727  26.125 19.727272727272727  L 20.625 19.727272727272727  C 20.252604166666668 19.727272727272727  19.930338541666668 19.587831439393938  19.658203125 19.308948863636363  C 19.386067708333332 19.030066287878785  19.25 18.699810606060606  19.25 18.318181818181817  L 19.25 12.681818181818182  C 19.25 12.300189393939393  19.386067708333332 11.969933712121211  19.658203125 11.691051136363635  C 19.930338541666668 11.412168560606062  20.252604166666668 11.272727272727273  20.625 11.272727272727273  Z " stroke-width="0" stroke-dasharray="0" stroke="rgba(255, 255, 255, 0)" fill="none" transform="matrix(1 0 0 1 367 101 )" class="stroke" mask="url(#Clip69)" />
    <path d="M 28.1875 14.090909090909092  L 33 14.090909090909092  L 33 16.909090909090907  L 28.1875 16.909090909090907  L 28.1875 14.090909090909092  Z " stroke-width="0" stroke-dasharray="0" stroke="rgba(255, 255, 255, 0)" fill="none" transform="matrix(1 0 0 1 367 101 )" class="stroke" mask="url(#Clip69)" />
    <path d="M 14.4375 3  L 33 3  L 33 6  L 14.4375 6  L 14.4375 3  Z " stroke-width="0" stroke-dasharray="0" stroke="rgba(255, 255, 255, 0)" fill="none" transform="matrix(1 0 0 1 367 101 )" class="stroke" mask="url(#Clip69)" />
  </g>
</svg>