<?xml version="1.0" encoding="utf-8"?>
<svg version="1.1" xmlns:xlink="http://www.w3.org/1999/xlink" width="23px" height="10px" xmlns="http://www.w3.org/2000/svg">
  <defs>
    <pattern id="BGPattern" patternUnits="userSpaceOnUse" alignment="0 0" imageRepeat="None" />
    <mask fill="white" id="Clip27">
      <path d="M 2.5555555555555554 2  L 19.166666666666668 2  L 19.166666666666668 8  L 2.5555555555555554 8  L 2.5555555555555554 2  Z M 20.444444444444443 8.75  L 20.444444444444443 6.5  L 21.72222222222222 6.5  L 21.72222222222222 3.5  L 20.444444444444443 3.5  L 20.444444444444443 1.25  C 20.444444444444443 1.177083333333332  20.41449652777778 1.1171874999999998  20.354600694444443 1.0703125000000002  C 20.29470486111111 1.0234374999999996  20.218171296296298 0.9999999999999998  20.125 1  L 1.5972222222222223 1  C 1.5040509259259263 0.9999999999999998  1.4275173611111112 1.0234374999999996  1.3676215277777777 1.0703125000000002  C 1.3077256944444444 1.1171874999999998  1.2777777777777777 1.177083333333332  1.2777777777777777 1.25  L 1.2777777777777777 8.75  C 1.2777777777777777 8.822916666666666  1.3077256944444444 8.8828125  1.3676215277777777 8.9296875  C 1.4275173611111112 8.9765625  1.5040509259259263 9  1.5972222222222223 9  L 20.125 9  C 20.218171296296298 9  20.29470486111111 8.9765625  20.354600694444443 8.9296875  C 20.41449652777778 8.8828125  20.444444444444443 8.822916666666666  20.444444444444443 8.75  Z M 22.625651041666668 2.79296875  C 22.87521701388889 2.988281249999999  23 3.223958333333332  23 3.5  L 23 6.5  C 23 6.776041666666666  22.87521701388889 7.01171875  22.625651041666668 7.20703125  C 22.376085069444443 7.40234375  22.07494212962963 7.5  21.72222222222222 7.5  L 21.72222222222222 8.75  C 21.72222222222222 9.09375  21.565827546296298 9.388020833333334  21.253038194444443 9.6328125  C 20.940248842592595 9.877604166666666  20.56423611111111 10  20.125 10  L 1.5972222222222223 10  C 1.1579861111111112 10  0.7819733796296297 9.877604166666666  0.4691840277777778 9.6328125  C 0.15639467592592593 9.388020833333334  0 9.09375  0 8.75  L 0 1.25  C 0 0.9062499999999996  0.15639467592592593 0.6119791666666663  0.4691840277777778 0.3671875000000002  C 0.7819733796296297 0.12239583333333193  1.1579861111111112 0  1.5972222222222223 0  L 20.125 0  C 20.56423611111111 0  20.940248842592595 0.12239583333333193  21.253038194444443 0.3671875000000002  C 21.565827546296298 0.6119791666666663  21.72222222222222 0.9062499999999996  21.72222222222222 1.25  L 21.72222222222222 2.5  C 22.07494212962963 2.499999999999999  22.376085069444443 2.597656249999999  22.625651041666668 2.79296875  Z " fill-rule="evenodd" />
    </mask>
  </defs>
  <g transform="matrix(1 0 0 1 -377 -63 )">
    <path d="M 2.5555555555555554 2  L 19.166666666666668 2  L 19.166666666666668 8  L 2.5555555555555554 8  L 2.5555555555555554 2  Z M 20.444444444444443 8.75  L 20.444444444444443 6.5  L 21.72222222222222 6.5  L 21.72222222222222 3.5  L 20.444444444444443 3.5  L 20.444444444444443 1.25  C 20.444444444444443 1.177083333333332  20.41449652777778 1.1171874999999998  20.354600694444443 1.0703125000000002  C 20.29470486111111 1.0234374999999996  20.218171296296298 0.9999999999999998  20.125 1  L 1.5972222222222223 1  C 1.5040509259259263 0.9999999999999998  1.4275173611111112 1.0234374999999996  1.3676215277777777 1.0703125000000002  C 1.3077256944444444 1.1171874999999998  1.2777777777777777 1.177083333333332  1.2777777777777777 1.25  L 1.2777777777777777 8.75  C 1.2777777777777777 8.822916666666666  1.3077256944444444 8.8828125  1.3676215277777777 8.9296875  C 1.4275173611111112 8.9765625  1.5040509259259263 9  1.5972222222222223 9  L 20.125 9  C 20.218171296296298 9  20.29470486111111 8.9765625  20.354600694444443 8.9296875  C 20.41449652777778 8.8828125  20.444444444444443 8.822916666666666  20.444444444444443 8.75  Z M 22.625651041666668 2.79296875  C 22.87521701388889 2.988281249999999  23 3.223958333333332  23 3.5  L 23 6.5  C 23 6.776041666666666  22.87521701388889 7.01171875  22.625651041666668 7.20703125  C 22.376085069444443 7.40234375  22.07494212962963 7.5  21.72222222222222 7.5  L 21.72222222222222 8.75  C 21.72222222222222 9.09375  21.565827546296298 9.388020833333334  21.253038194444443 9.6328125  C 20.940248842592595 9.877604166666666  20.56423611111111 10  20.125 10  L 1.5972222222222223 10  C 1.1579861111111112 10  0.7819733796296297 9.877604166666666  0.4691840277777778 9.6328125  C 0.15639467592592593 9.388020833333334  0 9.09375  0 8.75  L 0 1.25  C 0 0.9062499999999996  0.15639467592592593 0.6119791666666663  0.4691840277777778 0.3671875000000002  C 0.7819733796296297 0.12239583333333193  1.1579861111111112 0  1.5972222222222223 0  L 20.125 0  C 20.56423611111111 0  20.940248842592595 0.12239583333333193  21.253038194444443 0.3671875000000002  C 21.565827546296298 0.6119791666666663  21.72222222222222 0.9062499999999996  21.72222222222222 1.25  L 21.72222222222222 2.5  C 22.07494212962963 2.499999999999999  22.376085069444443 2.597656249999999  22.625651041666668 2.79296875  Z " fill-rule="nonzero" fill="rgba(255, 255, 255, 1)" stroke="none" transform="matrix(1 0 0 1 377 63 )" class="fill" />
    <path d="M 2.5555555555555554 2  L 19.166666666666668 2  L 19.166666666666668 8  L 2.5555555555555554 8  L 2.5555555555555554 2  Z " stroke-width="0" stroke-dasharray="0" stroke="rgba(255, 255, 255, 0)" fill="none" transform="matrix(1 0 0 1 377 63 )" class="stroke" mask="url(#Clip27)" />
    <path d="M 20.444444444444443 8.75  L 20.444444444444443 6.5  L 21.72222222222222 6.5  L 21.72222222222222 3.5  L 20.444444444444443 3.5  L 20.444444444444443 1.25  C 20.444444444444443 1.177083333333332  20.41449652777778 1.1171874999999998  20.354600694444443 1.0703125000000002  C 20.29470486111111 1.0234374999999996  20.218171296296298 0.9999999999999998  20.125 1  L 1.5972222222222223 1  C 1.5040509259259263 0.9999999999999998  1.4275173611111112 1.0234374999999996  1.3676215277777777 1.0703125000000002  C 1.3077256944444444 1.1171874999999998  1.2777777777777777 1.177083333333332  1.2777777777777777 1.25  L 1.2777777777777777 8.75  C 1.2777777777777777 8.822916666666666  1.3077256944444444 8.8828125  1.3676215277777777 8.9296875  C 1.4275173611111112 8.9765625  1.5040509259259263 9  1.5972222222222223 9  L 20.125 9  C 20.218171296296298 9  20.29470486111111 8.9765625  20.354600694444443 8.9296875  C 20.41449652777778 8.8828125  20.444444444444443 8.822916666666666  20.444444444444443 8.75  Z " stroke-width="0" stroke-dasharray="0" stroke="rgba(255, 255, 255, 0)" fill="none" transform="matrix(1 0 0 1 377 63 )" class="stroke" mask="url(#Clip27)" />
    <path d="M 22.625651041666668 2.79296875  C 22.87521701388889 2.988281249999999  23 3.223958333333332  23 3.5  L 23 6.5  C 23 6.776041666666666  22.87521701388889 7.01171875  22.625651041666668 7.20703125  C 22.376085069444443 7.40234375  22.07494212962963 7.5  21.72222222222222 7.5  L 21.72222222222222 8.75  C 21.72222222222222 9.09375  21.565827546296298 9.388020833333334  21.253038194444443 9.6328125  C 20.940248842592595 9.877604166666666  20.56423611111111 10  20.125 10  L 1.5972222222222223 10  C 1.1579861111111112 10  0.7819733796296297 9.877604166666666  0.4691840277777778 9.6328125  C 0.15639467592592593 9.388020833333334  0 9.09375  0 8.75  L 0 1.25  C 0 0.9062499999999996  0.15639467592592593 0.6119791666666663  0.4691840277777778 0.3671875000000002  C 0.7819733796296297 0.12239583333333193  1.1579861111111112 0  1.5972222222222223 0  L 20.125 0  C 20.56423611111111 0  20.940248842592595 0.12239583333333193  21.253038194444443 0.3671875000000002  C 21.565827546296298 0.6119791666666663  21.72222222222222 0.9062499999999996  21.72222222222222 1.25  L 21.72222222222222 2.5  C 22.07494212962963 2.499999999999999  22.376085069444443 2.597656249999999  22.625651041666668 2.79296875  Z " stroke-width="0" stroke-dasharray="0" stroke="rgba(255, 255, 255, 0)" fill="none" transform="matrix(1 0 0 1 377 63 )" class="stroke" mask="url(#Clip27)" />
  </g>
</svg>