<?xml version="1.0" encoding="utf-8"?>
<svg version="1.1" xmlns:xlink="http://www.w3.org/1999/xlink" width="350px" height="40px" xmlns="http://www.w3.org/2000/svg">
  <defs>
    <linearGradient gradientUnits="userSpaceOnUse" x1="175" y1="40" x2="175" y2="0" id="LinearGradient30">
      <stop id="Stop31" stop-color="#000000" stop-opacity="0.09803921568627451" offset="0" />
      <stop id="Stop32" stop-color="#000000" offset="1" />
    </linearGradient>
    <pattern id="BGPattern" patternUnits="userSpaceOnUse" alignment="1 1" imageRepeat="StretchCover" />
    <mask fill="white" id="Clip33">
      <path d="M 0 40  L 0 5  C 0 2.1999999999999997  2.1999999999999997 0  5 0  L 345 0  C 347.79999999999995 0  350 2.1999999999999997  350 5  L 350 40  L 0 40  Z " fill-rule="evenodd" />
    </mask>
  </defs>
  <g transform="matrix(1 0 0 1 -50 -239 )">
    <path d="M 0 40  L 0 5  C 0 2.1999999999999997  2.1999999999999997 0  5 0  L 345 0  C 347.79999999999995 0  350 2.1999999999999997  350 5  L 350 40  L 0 40  Z " fill-rule="nonzero" fill="url(#LinearGradient30)" stroke="none" transform="matrix(1 0 0 1 50 239 )" class="fill" />
    <path d="M 0 40  L 0 5  C 0 2.1999999999999997  2.1999999999999997 0  5 0  L 345 0  C 347.79999999999995 0  350 2.1999999999999997  350 5  L 350 40  L 0 40  Z " stroke-width="0" stroke-dasharray="0" stroke="rgba(121, 121, 121, 1)" fill="none" transform="matrix(1 0 0 1 50 239 )" class="stroke" mask="url(#Clip33)" />
  </g>
</svg>