<?xml version="1.0" encoding="utf-8"?>
<svg version="1.1" xmlns:xlink="http://www.w3.org/1999/xlink" width="14px" height="25px" xmlns="http://www.w3.org/2000/svg">
  <defs>
    <pattern id="BGPattern" patternUnits="userSpaceOnUse" alignment="0 0" imageRepeat="None" />
    <mask fill="white" id="Clip40">
      <path d="M 13.759450171821305 1.5030060120240467  C 13.919816723940437 1.670006680026717  14 1.8620574482297898  14 2.0791583166332672  C 14 2.2962591850367393  13.919816723940437 2.4883099532398116  13.759450171821305 2.655310621242485  L 4.305841924398626 12.5  L 13.759450171821305 22.344689378757515  C 13.919816723940437 22.511690046760187  14 22.703740814963258  14 22.92084168336673  C 14 23.13794255177021  13.919816723940437 23.329993319973276  13.759450171821305 23.49699398797595  L 12.556701030927835 24.749498997995993  C 12.396334478808706 24.916499665998664  12.211912943871708 25  12.003436426116838 25  C 11.794959908361971 25  11.610538373424973 24.916499665998664  11.450171821305842 24.749498997995993  L 0.2405498281786942 13.076152304609218  C 0.08018327605956477 12.909151636606545  0 12.717100868403472  0 12.5  C 0 12.282899131596526  0.08018327605956477 12.090848363393453  0.2405498281786942 11.923847695390782  L 11.450171821305842 0.25050100200400827  C 11.610538373424973 0.08350033400133516  11.794959908361971 0  12.003436426116838 0  C 12.211912943871708 0  12.396334478808706 0.08350033400133516  12.556701030927835 0.25050100200400827  L 13.759450171821305 1.5030060120240467  Z " fill-rule="evenodd" />
    </mask>
  </defs>
  <g transform="matrix(1 0 0 1 -66 -89 )">
    <path d="M 13.759450171821305 1.5030060120240467  C 13.919816723940437 1.670006680026717  14 1.8620574482297898  14 2.0791583166332672  C 14 2.2962591850367393  13.919816723940437 2.4883099532398116  13.759450171821305 2.655310621242485  L 4.305841924398626 12.5  L 13.759450171821305 22.344689378757515  C 13.919816723940437 22.511690046760187  14 22.703740814963258  14 22.92084168336673  C 14 23.13794255177021  13.919816723940437 23.329993319973276  13.759450171821305 23.49699398797595  L 12.556701030927835 24.749498997995993  C 12.396334478808706 24.916499665998664  12.211912943871708 25  12.003436426116838 25  C 11.794959908361971 25  11.610538373424973 24.916499665998664  11.450171821305842 24.749498997995993  L 0.2405498281786942 13.076152304609218  C 0.08018327605956477 12.909151636606545  0 12.717100868403472  0 12.5  C 0 12.282899131596526  0.08018327605956477 12.090848363393453  0.2405498281786942 11.923847695390782  L 11.450171821305842 0.25050100200400827  C 11.610538373424973 0.08350033400133516  11.794959908361971 0  12.003436426116838 0  C 12.211912943871708 0  12.396334478808706 0.08350033400133516  12.556701030927835 0.25050100200400827  L 13.759450171821305 1.5030060120240467  Z " fill-rule="nonzero" fill="rgba(255, 255, 255, 1)" stroke="none" transform="matrix(1 0 0 1 66 89 )" class="fill" />
    <path d="M 13.759450171821305 1.5030060120240467  C 13.919816723940437 1.670006680026717  14 1.8620574482297898  14 2.0791583166332672  C 14 2.2962591850367393  13.919816723940437 2.4883099532398116  13.759450171821305 2.655310621242485  L 4.305841924398626 12.5  L 13.759450171821305 22.344689378757515  C 13.919816723940437 22.511690046760187  14 22.703740814963258  14 22.92084168336673  C 14 23.13794255177021  13.919816723940437 23.329993319973276  13.759450171821305 23.49699398797595  L 12.556701030927835 24.749498997995993  C 12.396334478808706 24.916499665998664  12.211912943871708 25  12.003436426116838 25  C 11.794959908361971 25  11.610538373424973 24.916499665998664  11.450171821305842 24.749498997995993  L 0.2405498281786942 13.076152304609218  C 0.08018327605956477 12.909151636606545  0 12.717100868403472  0 12.5  C 0 12.282899131596526  0.08018327605956477 12.090848363393453  0.2405498281786942 11.923847695390782  L 11.450171821305842 0.25050100200400827  C 11.610538373424973 0.08350033400133516  11.794959908361971 0  12.003436426116838 0  C 12.211912943871708 0  12.396334478808706 0.08350033400133516  12.556701030927835 0.25050100200400827  L 13.759450171821305 1.5030060120240467  Z " stroke-width="0" stroke-dasharray="0" stroke="rgba(255, 255, 255, 0)" fill="none" transform="matrix(1 0 0 1 66 89 )" class="stroke" mask="url(#Clip40)" />
  </g>
</svg>